<!DOCTYPE svg PUBLIC "-//W3C//DTD SVG 1.1//EN" "http://www.w3.org/Graphics/SVG/1.1/DTD/svg11.dtd">
<!-- Uploaded to: SVG Repo, www.svgrepo.com, Transformed by: SVG Repo Mixer Tools -->
<svg fill="#fff" height="800px" width="800px" version="1.1" xmlns="http://www.w3.org/2000/svg" viewBox="0 0 512 512" xmlns:xlink="http://www.w3.org/1999/xlink" enable-background="new 0 0 512 512" stroke="#fff">
<g id="SVGRepo_bgCarrier" stroke-width="0"/>
<g id="SVGRepo_tracerCarrier" stroke-linecap="round" stroke-linejoin="round"/>
<g id="SVGRepo_iconCarrier"> <g> <g> <path d="m480.6,11h-343.2c-38.6,0-70.1,31.8-70.1,71v183.9c-35,23.6-56.3,63.5-56.3,106.7 0,70.8 56.7,128.4 126.4,128.4h343.2c11.3,0 20.4-9.1 20.4-20.4v-449.2c0-11.3-9.1-20.4-20.4-20.4zm-343.2,449.2c-47.2,0-85.6-39.3-85.6-87.5 0-32.5 17.5-62.1 45.7-77.4 6.6-3.6 10.7-10.5 10.7-18v-195.3c0-16.6 13.1-30.1 29.2-30.1s29.2,13.5 29.2,30.1v195.3c0,7.5 4.1,14.4 10.7,18 28.2,15.2 45.7,44.9 45.7,77.4 0,48.2-38.4,87.5-85.6,87.5zm322.8,0h-230.4c21.1-22.9 34-53.7 34-87.5 0-43.3-21.3-83.1-56.4-106.8v-183.9c0-10.8-2.4-21-6.6-30.1h259.3v408.3z"/> <path d="m303.9,188h28.7v29.6c0,11.3 9.1,20.4 20.4,20.4 11.3,0 20.4-9.1 20.4-20.4v-29.6h28.7c11.3,0 20.4-9.1 20.4-20.4 0-11.3-9.1-20.4-20.4-20.4h-28.7v-29.6c0-11.3-9.1-20.4-20.4-20.4-11.3,0-20.4,9.1-20.4,20.4v29.6h-28.7c-11.3,0-20.4,9.1-20.4,20.4 0,11.3 9.1,20.4 20.4,20.4z"/> <path d="m402.2,372.7h-88.1c-11.3,0-20.4,9.1-20.4,20.4 0,11.3 9.1,20.4 20.4,20.4h88.1c11.3,0 20.4-9.1 20.4-20.4 0-11.2-9.2-20.4-20.4-20.4z"/> </g> </g> </g>
</svg>